{
  "accessors": [
    {
      "bufferView": 2,
      "componentType": 5126,
      "count": 9087,
      "max": [
        31.939193725585938,
        73.15631866455078,
        50.31758117675781
      ],
      "min": [
        -31.939193725585938,
        -73.15631866455078,
        -50.31757736206055
      ],
      "type": "VEC3"
    },
    {
      "bufferView": 2,
      "byteOffset": 109044,
      "componentType": 5126,
      "count": 9087,
      "max": [
        1.0,
        1.0,
        1.0
      ],
      "min": [
        -1.0,
        -1.0,
        -1.0
      ],
      "type": "VEC3"
    },
    {
      "bufferView": 1,
      "componentType": 5126,
      "count": 9087,
      "max": [
        0.9848054647445679,
        11.97467041015625
      ],
      "min": [
        -10.987533569335938,
        0.018260283395648003
      ],
      "type": "VEC2"
    },
    {
      "bufferView": 0,
      "componentType": 5125,
      "count": 17856,
      "type": "SCALAR"
    }
  ],
  "asset": {
    "extras": {
      "author": "Junaid_shakoor (https://sketchfab.com/Junaid_shakoor)",
      "license": "CC-BY-4.0 (http://creativecommons.org/licenses/by/4.0/)",
      "source": "https://sketchfab.com/3d-models/low-poly-qingqi-rickshaw-for-mobile-games-99a87f79f5bb45ab83d6379d98cf9838",
      "title": "Low poly QINGQI Rickshaw for Mobile games"
    },
    "generator": "Sketchfab-12.65.0",
    "version": "2.0"
  },
  "bufferViews": [
    {
      "buffer": 0,
      "byteLength": 71424,
      "name": "floatBufferViews",
      "target": 34963
    },
    {
      "buffer": 0,
      "byteLength": 72696,
      "byteOffset": 71424,
      "byteStride": 8,
      "name": "floatBufferViews",
      "target": 34962
    },
    {
      "buffer": 0,
      "byteLength": 218088,
      "byteOffset": 144120,
      "byteStride": 12,
      "name": "floatBufferViews",
      "target": 34962
    }
  ],
  "buffers": [
    {
      "byteLength": 362208,
      "uri": "scene.bin"
    }
  ],
  "extensionsRequired": [
    "KHR_materials_pbrSpecularGlossiness"
  ],
  "extensionsUsed": [
    "KHR_materials_pbrSpecularGlossiness"
  ],
  "images": [
    {
      "uri": "textures/04_-_Default_diffuse.png"
    }
  ],
  "materials": [
    {
      "doubleSided": true,
      "extensions": {
        "KHR_materials_pbrSpecularGlossiness": {
          "diffuseFactor": [
            1.0,
            1.0,
            1.0,
            1.0
          ],
          "diffuseTexture": {
            "index": 0
          },
          "glossinessFactor": 0.7340670411691725,
          "specularFactor": [
            0.0,
            0.0,
            0.0
          ]
        }
      },
      "name": "04_-_Default"
    }
  ],
  "meshes": [
    {
      "name": "Qingqi_04 - Default_0",
      "primitives": [
        {
          "attributes": {
            "NORMAL": 1,
            "POSITION": 0,
            "TEXCOORD_0": 2
          },
          "indices": 3,
          "material": 0,
          "mode": 4
        }
      ]
    }
  ],
  "nodes": [
    {
      "children": [
        1
      ],
      "matrix": [
        10.147223472595215,
        0.0,
        0.0,
        0.0,
        0.0,
        2.2531362270584087e-15,
        -10.147223472595215,
        0.0,
        0.0,
        10.147223472595215,
        2.2531362270584087e-15,
        0.0,
        0.0,
        0.0,
        0.0,
        1.0
      ],
      "name": "Sketchfab_model"
    },
    {
      "children": [
        2
      ],
      "matrix": [
        1.0,
        0.0,
        0.0,
        0.0,
        0.0,
        0.0,
        1.0,
        0.0,
        0.0,
        -1.0,
        0.0,
        0.0,
        0.0,
        0.0,
        0.0,
        1.0
      ],
      "name": "d510eda9d8c14973a604566bc88c0ad2.fbx"
    },
    {
      "children": [
        3
      ],
      "name": "RootNode"
    },
    {
      "children": [
        4
      ],
      "matrix": [
        1.0,
        0.0,
        0.0,
        0.0,
        0.0,
        2.220446049250313e-16,
        -1.0,
        0.0,
        0.0,
        1.0,
        2.220446049250313e-16,
        0.0,
        -0.14413070678710938,
        50.626747131347656,
        -12.043132781982422,
        1.0
      ],
      "name": "Qingqi"
    },
    {
      "mesh": 0,
      "name": "Qingqi_04 - Default_0"
    }
  ],
  "samplers": [
    {
      "magFilter": 9729,
      "minFilter": 9987,
      "wrapS": 10497,
      "wrapT": 10497
    }
  ],
  "scene": 0,
  "scenes": [
    {
      "name": "Sketchfab_Scene",
      "nodes": [
        0
      ]
    }
  ],
  "textures": [
    {
      "sampler": 0,
      "source": 0
    }
  ]
}
