{
  "accessors": [
    {
      "bufferView": 2,
      "componentType": 5126,
      "count": 16277,
      "max": [
        4.325997829437256,
        20.713050842285156,
        7.476225852966309
      ],
      "min": [
        -14.008668899536133,
        7.960296154022217,
        -12.234148025512695
      ],
      "type": "VEC3"
    },
    {
      "bufferView": 2,
      "byteOffset": 195324,
      "componentType": 5126,
      "count": 16277,
      "max": [
        0.9996452927589417,
        0.9996665120124817,
        0.9999985694885254
      ],
      "min": [
        -0.9999896883964539,
        -0.9985417723655701,
        -0.9998351335525513
      ],
      "type": "VEC3"
    },
    {
      "bufferView": 3,
      "componentType": 5126,
      "count": 16277,
      "max": [
        0.9999089241027832,
        0.9999015927314758,
        0.9999804496765137,
        1.0
      ],
      "min": [
        -0.9998763203620911,
        -0.9993764758110046,
        -0.9995315074920654,
        1.0
      ],
      "type": "VEC4"
    },
    {
      "bufferView": 1,
      "componentType": 5126,
      "count": 16277,
      "max": [
        0.9755229949951172,
        0.9999899864196777
      ],
      "min": [
        4.8999998398358e-05,
        6.399999983841553e-05
      ],
      "type": "VEC2"
    },
    {
      "bufferView": 0,
      "componentType": 5125,
      "count": 75000,
      "type": "SCALAR"
    }
  ],
  "asset": {
    "extras": {
      "author": "Abandoned Scans (https://sketchfab.com/realMrAnderson)",
      "license": "CC-BY-4.0 (http://creativecommons.org/licenses/by/4.0/)",
      "source": "https://sketchfab.com/3d-models/derelict-road-sign-8720bc1d4e7b4e10be6c670fe058d489",
      "title": "Derelict Road Sign"
    },
    "generator": "Sketchfab-12.68.0",
    "version": "2.0"
  },
  "bufferViews": [
    {
      "buffer": 0,
      "byteLength": 300000,
      "name": "floatBufferViews",
      "target": 34963
    },
    {
      "buffer": 0,
      "byteLength": 130216,
      "byteOffset": 300000,
      "byteStride": 8,
      "name": "floatBufferViews",
      "target": 34962
    },
    {
      "buffer": 0,
      "byteLength": 390648,
      "byteOffset": 430216,
      "byteStride": 12,
      "name": "floatBufferViews",
      "target": 34962
    },
    {
      "buffer": 0,
      "byteLength": 260432,
      "byteOffset": 820864,
      "byteStride": 16,
      "name": "floatBufferViews",
      "target": 34962
    }
  ],
  "buffers": [
    {
      "byteLength": 1081296,
      "uri": "scene.bin"
    }
  ],
  "images": [
    {
      "uri": "textures/low-poly-road-sign_baseColor.jpeg"
    },
    {
      "uri": "textures/low-poly-road-sign_normal.jpeg"
    }
  ],
  "materials": [
    {
      "doubleSided": true,
      "name": "low-poly-road-sign",
      "normalTexture": {
        "index": 1
      },
      "pbrMetallicRoughness": {
        "baseColorTexture": {
          "index": 0
        },
        "metallicFactor": 0.0
      }
    }
  ],
  "meshes": [
    {
      "name": "Object_0",
      "primitives": [
        {
          "attributes": {
            "NORMAL": 1,
            "POSITION": 0,
            "TANGENT": 2,
            "TEXCOORD_0": 3
          },
          "indices": 4,
          "material": 0,
          "mode": 4
        }
      ]
    }
  ],
  "nodes": [
    {
      "children": [
        1
      ],
      "matrix": [
        0.9515969753265381,
        -0.05944416671991355,
        0.3015454113483429,
        0.0,
        0.2972978353500366,
        0.4268822669982912,
        -0.8540406823158263,
        0.0,
        -0.07795664668083191,
        0.9023513197898864,
        0.42389246821403526,
        0.0,
        -4.682052135467529,
        -6.640161514282227,
        0.3757243752479538,
        1.0
      ],
      "name": "Sketchfab_model"
    },
    {
      "children": [
        2
      ],
      "name": "low-poly-road-sign.obj.cleaner.materialmerger.gles"
    },
    {
      "mesh": 0,
      "name": "Object_2"
    }
  ],
  "samplers": [
    {
      "magFilter": 9729,
      "minFilter": 9987,
      "wrapS": 10497,
      "wrapT": 10497
    }
  ],
  "scene": 0,
  "scenes": [
    {
      "name": "Sketchfab_Scene",
      "nodes": [
        0
      ]
    }
  ],
  "textures": [
    {
      "sampler": 0,
      "source": 0
    },
    {
      "sampler": 0,
      "source": 1
    }
  ]
}
